<?xml version="1.0" encoding="UTF-8" standalone="no"?>
<!-- Created with Inkscape (http://www.inkscape.org/) -->

<svg
   version="1.1"
   id="svg208"
   width="482.0307"
   height="410.39462"
   viewBox="0 0 482.0307 410.39462"
   xmlns:xlink="http://www.w3.org/1999/xlink"
   xmlns="http://www.w3.org/2000/svg"
   xmlns:svg="http://www.w3.org/2000/svg">
  <defs
     id="defs212">
    <linearGradient
       id="linearGradient1286">
      <stop
         style="stop-color:#ff7eaf;stop-opacity:1;"
         offset="0"
         id="stop1282" />
      <stop
         style="stop-color:#ff7e88;stop-opacity:0.72593504;"
         offset="1"
         id="stop1284" />
    </linearGradient>
    <linearGradient
       xlink:href="#linearGradient1286"
       id="linearGradient1288"
       x1="174.89612"
       y1="37.063984"
       x2="522.80762"
       y2="510.11411"
       gradientUnits="userSpaceOnUse"
       gradientTransform="matrix(0.99134293,0,0,0.99134293,0.03232583,0.11119111)" />
  </defs>
  <g
     id="g214"
     transform="translate(-23.03459,-73.361232)">
    <g
       id="g627">
      <path
         id="rect614"
         style="fill:url(#linearGradient1288);fill-opacity:1;stroke-width:1.01164;stroke-linejoin:round"
         d="M 164.59375,73.361328 C 93.234672,73.408433 28.414942,127.75772 23.164062,213.20312 c -4.154906,67.61019 92.072508,177.76907 233.753908,267.59766 2.56428,1.62583 5.76864,2.95508 7.12109,2.95508 2.83154,0 6.13984,-2.01222 26.86524,-16.33594 C 432.42838,369.60991 508.94065,278.72511 504.91406,213.20312 497.27645,88.918915 363.60909,30.424715 267.10352,109.13477 c -3.06379,2.49879 -3.06316,2.49879 -6.12696,0 C 230.8186,84.53787 197.02965,73.339905 164.59375,73.361328 Z m 3.94141,18.994141 c 29.59287,0.506263 59.85485,11.633041 85.27929,35.720701 8.82152,8.35767 11.62974,8.35767 20.45117,0 81.35823,-77.080524 212.25001,-21.4418 212.25,90.22266 0,58.36967 -80.19205,148.28159 -212.20898,237.92969 -11.85456,8.05002 -9.27748,7.77273 -17.80859,1.9121 C 118.86365,363.58956 41.5625,277.33104 41.5625,218.29883 c 0,-76.76932 61.86825,-127.057143 126.97266,-125.943361 z m 219.11328,35.443361 c -1.79956,-0.0214 -3.36932,0.27615 -4.64063,0.93359 -6.18282,3.19724 -5.82695,13.21915 0.5625,15.83594 32.18411,13.18113 49.03018,34.87274 52.06446,67.04687 0.82641,8.76222 2.38684,12.41006 5.92187,13.83399 19.33088,7.7865 16.15649,-34.64742 -4.78906,-64.02539 -12.60365,-17.6777 -36.5224,-33.47539 -49.11914,-33.625 z" />
    </g>
  </g>
</svg>
